<svg xmlns="http://www.w3.org/2000/svg" fill="none" viewBox="0 0 100 100">
    <path fill="#FF9D0B"
        d="M9.375 48.064c0-14.196 7.696-27.309 20.183-34.409a40.92 40.92 0 0 1 40.363 0c12.487 7.1 20.183 20.213 20.183 34.409 0 21.941-18.07 39.729-40.362 39.729S9.375 70 9.375 48.063" />
    <path fill="#FFD21E"
        d="M49.742 83.693c19.987 0 36.196-15.954 36.196-35.63 0-19.674-16.209-35.624-36.196-35.624-19.992 0-36.2 15.95-36.2 35.625s16.208 35.625 36.2 35.625z" />
    <path fill="#FF323D"
        d="M49.48 62.972c10.237 0 13.541-8.983 13.541-13.595 0-2.4-1.638-1.642-4.263-.371-2.425 1.179-5.687 2.812-9.266 2.812-7.492 0-13.542-7.054-13.542-2.441 0 4.612 3.292 13.595 13.542 13.595z" />
    <path fill="#3A3B45"
        d="M61.5 38.378c1.333.45 1.854 3.137 3.196 2.437a5.11 5.11 0 0 0 2.746-5.017 5.15 5.15 0 0 0-3.663-4.412 5.26 5.26 0 0 0-5.541 1.642 5.06 5.06 0 0 0-.584 5.666c.638 1.18 2.659-.737 3.854-.329zm-24.53 0c-1.332.45-1.866 3.137-3.2 2.437a5.11 5.11 0 0 1-2.74-5.017c.2-2.062 1.645-3.804 3.658-4.412a5.26 5.26 0 0 1 5.541 1.642 5.06 5.06 0 0 1 .584 5.666c-.634 1.18-2.667-.737-3.855-.329zm4.668 22.25a9.02 9.02 0 0 1 5.52-4.609c.292-.083.6.25.913.713l.8 1.275c.287.416.58.729.87.729.31 0 .626-.308.93-.717l.854-1.258c.333-.459.654-.784.975-.688a8.94 8.94 0 0 1 5.208 4.275c3.884-3.016 5.313-7.937 5.313-10.97 0-2.117-1.275-1.776-3.375-.792l-2.567 1.233c-2.166 1-4.783 2-7.6 2s-5.425-1-7.596-2L39.43 48.64c-2.166-1.033-3.491-1.425-3.491.737 0 2.93 1.333 7.63 4.945 10.667l.75.584z" />
    <path fill="#FF9D0B"
        d="M74.217 43.194a3.357 3.357 0 0 0 3.387-3.333c0-1.838-1.516-3.333-3.387-3.333a3.36 3.36 0 0 0-3.383 3.333c0 1.842 1.516 3.333 3.383 3.333m-48.433 0a3.36 3.36 0 0 0 3.383-3.333c0-1.838-1.517-3.333-3.384-3.333a3.357 3.357 0 0 0-3.387 3.333c0 1.842 1.517 3.333 3.387 3.333m-6.971 11.28c-1.688 0-3.188.674-4.238 1.916a6.06 6.06 0 0 0-1.387 3.854 7.5 7.5 0 0 0-2.021-.308c-1.613 0-3.071.608-4.104 1.704a5.875 5.875 0 0 0-.834 7.175 5.43 5.43 0 0 0-1.862 2.892c-.25.925-.5 2.875.833 4.858a5.28 5.28 0 0 0-.387 5.15c.991 2.22 3.375 3.992 7.875 5.854l1 .4c3.2 1.25 6.137 2.05 6.158 2.059a47 47 0 0 0 11.383 1.641c6.105 0 10.471-1.846 12.98-5.475 3.874-5.591 3.508-10.729-1.142-15.679l-.63-.642c-2.883-2.85-4.812-7.041-5.208-7.966-.812-2.73-2.958-5.763-6.508-5.763a5.97 5.97 0 0 0-4.792 2.521c-1.041-1.292-2.062-2.304-2.979-2.892a7.8 7.8 0 0 0-4.137-1.3m62.375 0c1.687 0 3.195.674 4.237 1.916a6.05 6.05 0 0 1 1.388 3.854 7.6 7.6 0 0 1 2.029-.308c1.617 0 3.075.608 4.104 1.704a5.874 5.874 0 0 1 .833 7.175 5.42 5.42 0 0 1 1.855 2.892c.25.925.5 2.875-.834 4.858a5.29 5.29 0 0 1 .388 5.15c-.992 2.22-3.375 3.992-7.871 5.854l-.996.4c-3.208 1.25-6.146 2.05-6.167 2.059a47 47 0 0 1-11.383 1.641c-6.104 0-10.47-1.846-12.98-5.475-3.874-5.591-3.508-10.729 1.143-15.679l.629-.642c2.895-2.85 4.82-7.041 5.216-7.966.813-2.73 2.95-5.763 6.5-5.763a5.97 5.97 0 0 1 4.792 2.521c1.042-1.292 2.063-2.304 2.992-2.892a7.8 7.8 0 0 1 3.391-1.25z" />
    <path fill="#FFD21E"
        d="M40.77 83.884c2.868-4.141 2.66-7.25-1.27-11.112-3.937-3.867-6.23-9.534-6.23-9.534s-.853-3.283-2.8-2.975c-1.95.309-3.374 5.209.71 8.213 4.07 3.004-.813 5.041-2.388 2.225-1.563-2.821-5.854-10.067-8.084-11.463-2.216-1.383-3.779-.616-3.258 2.255.52 2.862 9.82 9.791 8.917 11.279-.909 1.508-4.096-1.75-4.096-1.75s-9.967-8.938-12.146-6.605c-2.167 2.326 1.658 4.275 7.083 7.513 5.45 3.242 5.875 4.104 5.105 5.333-.78 1.23-12.792-8.75-13.917-4.512-1.125 4.212 12.262 5.433 11.437 8.358-.833 2.917-9.437-5.516-11.187-2.237-1.77 3.291 12.137 7.158 12.25 7.187 4.48 1.15 15.887 3.58 19.875-2.175m18.468 0c-2.863-4.141-2.667-7.25 1.27-11.112 3.93-3.867 6.221-9.534 6.221-9.534s.854-3.283 2.813-2.975c1.937.309 3.362 5.209-.709 8.213-4.083 3.004.813 5.041 2.375 2.225 1.571-2.821 5.863-10.067 8.084-11.463 2.216-1.383 3.791-.616 3.258 2.255-.52 2.862-9.812 9.791-8.904 11.279.896 1.508 4.083-1.75 4.083-1.75s9.98-8.938 12.146-6.605c2.167 2.326-1.646 4.275-7.083 7.513-5.45 3.242-5.867 4.104-5.104 5.333.779 1.23 12.791-8.75 13.916-4.512 1.125 4.212-12.25 5.433-11.429 8.358.833 2.917 9.43-5.516 11.188-2.237 1.762 3.291-12.134 7.158-12.25 7.187-4.488 1.15-15.896 3.58-19.875-2.175" />
</svg>